<svg width="30" height="29" viewBox="0 0 30 29" fill="none" xmlns="http://www.w3.org/2000/svg">
<g clip-path="url(#clip0_110_1983)">
<path d="M9.99984 11.4138L6.75684 8.17184L8.17184 6.75684L11.4138 9.99984H26.6558C26.8117 9.99983 26.9654 10.0362 27.1047 10.1062C27.244 10.1762 27.365 10.2777 27.4581 10.4027C27.5511 10.5278 27.6137 10.6728 27.6407 10.8263C27.6678 10.9798 27.6586 11.1375 27.6138 11.2868L25.2138 19.2868C25.1521 19.4929 25.0255 19.6736 24.853 19.802C24.6804 19.9305 24.471 19.9999 24.2558 19.9998H11.9998V21.9998H22.9998V23.9998H10.9998C10.7346 23.9998 10.4803 23.8945 10.2927 23.7069C10.1052 23.5194 9.99984 23.2651 9.99984 22.9998V11.4138ZM11.4998 27.9998C11.102 27.9998 10.7205 27.8418 10.4392 27.5605C10.1579 27.2792 9.99984 26.8977 9.99984 26.4998C9.99984 26.102 10.1579 25.7205 10.4392 25.4392C10.7205 25.1579 11.102 24.9998 11.4998 24.9998C11.8977 24.9998 12.2792 25.1579 12.5605 25.4392C12.8418 25.7205 12.9998 26.102 12.9998 26.4998C12.9998 26.8977 12.8418 27.2792 12.5605 27.5605C12.2792 27.8418 11.8977 27.9998 11.4998 27.9998ZM23.4998 27.9998C23.102 27.9998 22.7205 27.8418 22.4392 27.5605C22.1579 27.2792 21.9998 26.8977 21.9998 26.4998C21.9998 26.102 22.1579 25.7205 22.4392 25.4392C22.7205 25.1579 23.102 24.9998 23.4998 24.9998C23.8977 24.9998 24.2792 25.1579 24.5605 25.4392C24.8418 25.7205 24.9998 26.102 24.9998 26.4998C24.9998 26.8977 24.8418 27.2792 24.5605 27.5605C24.2792 27.8418 23.8977 27.9998 23.4998 27.9998Z" fill="#FDC886"/>
</g>
<g clip-path="url(#clip1_110_1983)">
<path d="M6 11C3.2385 11 1 8.7615 1 6C1 3.2385 3.2385 1 6 1C8.7615 1 11 3.2385 11 6C11 8.7615 8.7615 11 6 11ZM5.5 5.5H3.5V6.5H5.5V8.5H6.5V6.5H8.5V5.5H6.5V3.5H5.5V5.5Z" fill="#FDC886"/>
</g>
<defs>
<clipPath id="clip0_110_1983">
<rect width="24" height="24" fill="white" transform="translate(6 5)"/>
</clipPath>
<clipPath id="clip1_110_1983">
<rect width="12" height="12" fill="white"/>
</clipPath>
</defs>
</svg>
