<svg width="80" height="80" viewBox="0 0 80 80" fill="none" xmlns="http://www.w3.org/2000/svg">
<rect width="80" height="80" rx="40" fill="#FDC886" fill-opacity="0.2"/>
<path d="M32.355 20.8222C32.355 19.8158 33.1709 19 34.1772 19H41.4661C42.4725 19 43.2884 19.8158 43.2884 20.8222V21.7333C43.2884 24.2493 41.2488 26.2889 38.7328 26.2889H36.9106C34.3946 26.2889 32.355 24.2493 32.355 21.7333V20.8222Z" fill="#FDC886"/>
<path d="M31.2994 30.448C31.9539 29.5356 33.0115 29.0222 34.1344 29.0222H41.509C42.6319 29.0222 43.6895 29.5356 44.344 30.448C46.5301 33.4955 51.43 40.8497 52.3995 46.7889C52.7804 49.1224 53.1832 50.9719 52.661 52.8605C51.7371 56.2017 47.7376 57.2667 44.271 57.2667H31.3723C27.9058 57.2667 23.9062 56.2017 22.9824 52.8605C22.4602 50.9719 22.863 49.1224 23.2439 46.7889C24.2134 40.8497 29.1133 33.4955 31.2994 30.448Z" fill="#FDC886"/>
<path d="M38.4413 51.104C38.1255 51.104 37.8643 50.9946 37.6578 50.776C37.4513 50.5695 37.348 50.3143 37.348 50.0106V48.9355C36.6434 48.8869 36.0178 48.7776 35.4711 48.6075C34.9366 48.4253 34.481 48.237 34.1044 48.0426C33.7643 47.8726 33.5517 47.6357 33.4667 47.332C33.3816 47.0161 33.3938 46.7185 33.5031 46.4391C33.6246 46.1475 33.819 45.941 34.0862 45.8195C34.3656 45.6859 34.6936 45.7102 35.0702 45.8924C35.3618 46.0503 35.7687 46.2143 36.2911 46.3844C36.8135 46.5423 37.4513 46.6213 38.2044 46.6213C39.0427 46.6213 39.6379 46.4877 39.9902 46.2204C40.3425 45.9532 40.5187 45.6191 40.5187 45.2182C40.5187 44.8902 40.3972 44.6169 40.1542 44.3982C39.9113 44.1795 39.4739 44.0034 38.8422 43.8698L36.8378 43.4324C34.6268 42.9465 33.5213 41.7681 33.5213 39.8973C33.5213 38.8769 33.8676 38.0143 34.56 37.3098C35.2524 36.6052 36.1818 36.1618 37.348 35.9795V34.8315C37.348 34.5278 37.4513 34.2727 37.6578 34.0662C37.8643 33.8475 38.1255 33.7382 38.4413 33.7382C38.745 33.7382 39.0002 33.8475 39.2067 34.0662C39.4132 34.2727 39.5164 34.5278 39.5164 34.8315V35.9249C39.9659 35.9856 40.4276 36.0949 40.9013 36.2529C41.3873 36.4108 41.8124 36.6173 42.1769 36.8724C42.4684 37.0546 42.6446 37.2915 42.7053 37.5831C42.7782 37.8625 42.7539 38.1298 42.6324 38.3849C42.511 38.64 42.3105 38.8222 42.0311 38.9315C41.7639 39.0287 41.4359 38.9801 41.0471 38.7858C40.7191 38.6278 40.3607 38.4942 39.972 38.3849C39.5833 38.2755 39.1034 38.2209 38.5324 38.2209C37.8279 38.2209 37.2751 38.3666 36.8742 38.6582C36.4733 38.9498 36.2729 39.3263 36.2729 39.788C36.2729 40.116 36.3883 40.3893 36.6191 40.608C36.8621 40.8145 37.2812 40.9846 37.8764 41.1182L39.8991 41.5555C41.0532 41.8106 41.9036 42.2298 42.4502 42.8129C43.009 43.3838 43.2884 44.1188 43.2884 45.0178C43.2884 46.0503 42.9362 46.9007 42.2316 47.5689C41.5391 48.237 40.6341 48.6683 39.5164 48.8626V50.0106C39.5164 50.3143 39.4132 50.5695 39.2067 50.776C39.0002 50.9946 38.745 51.104 38.4413 51.104Z" fill="#FFF4E7"/>
<circle cx="50.9778" cy="52.7111" r="6.37778" fill="#FDC886" stroke="#FFF4E7" stroke-width="1.82222"/>
<rect x="49.533" y="49.9778" width="5.46667" height="1.82222" rx="0.911111" transform="rotate(45 49.533 49.9778)" fill="#FFF4E7"/>
<rect x="48.2445" y="53.8433" width="5.46667" height="1.82222" rx="0.911111" transform="rotate(-45 48.2445 53.8433)" fill="#FFF4E7"/>
</svg>
