<svg width="36" height="36" viewBox="0 0 36 36" fill="none" xmlns="http://www.w3.org/2000/svg">
<rect width="36" height="36" rx="12" fill="#FDC886"/>
<path fill-rule="evenodd" clip-rule="evenodd" d="M12.4714 17.4514C12.2052 17.4881 12 17.7197 12 17.9999C12 18.3056 12.2442 18.5535 12.5455 18.5535L22.1333 18.5535L18.6698 22.0542L18.6169 22.1162C18.458 22.3326 18.475 22.6401 18.6682 22.8371C18.8808 23.0537 19.2262 23.0544 19.4396 22.8387L23.8331 18.3984C23.8547 18.3773 23.8746 18.3544 23.8925 18.3299L23.8927 18.3297C24.0519 18.1126 24.0342 17.8041 23.8396 17.6074L19.4396 13.1613L19.3783 13.1078C19.1644 12.9475 18.8614 12.966 18.6682 13.163C18.4557 13.3796 18.4564 13.7301 18.6699 13.9458L22.1342 17.4464L12.5455 17.4464L12.4714 17.4514Z" fill="#232631"/>
</svg>
